<?xml version="1.0" standalone="no"?><!DOCTYPE svg PUBLIC "-//W3C//DTD SVG 1.1//EN" "http://www.w3.org/Graphics/SVG/1.1/DTD/svg11.dtd"><svg t="1677065526651" class="icon" viewBox="0 0 1024 1024" version="1.1" xmlns="http://www.w3.org/2000/svg" p-id="2192" xmlns:xlink="http://www.w3.org/1999/xlink" width="200" height="200"><path d="M0 0h1024v1024H0V0z" fill="#F5F5F5" p-id="2193"></path><path d="M733.416727 494.824727c9.309091 0 16.756364 7.447273 16.756364 16.290909v0.930909a16.756364 16.756364 0 0 1-16.756364 17.221819H529.22181799v204.148363c0 8.145455-5.725091 14.894545-13.35854499 16.430546l-3.397818 0.325818H512c-8.843636 0-17.22181799-7.447273-17.22181799-16.756364v-204.148363h34.44363598v-34.443637zM512.465455 274.013091c9.309091 0 16.756364 7.447273 16.75636301 16.290909v204.520727h-34.443636v34.443637H290.304a16.523636 16.523636 0 0 1-15.965091-13.35854599l-0.325818-3.39781801v-1.396364c0-8.843636 7.447273-16.290909 16.290909-16.290909h204.520727V290.304c0-7.726545 5.678545-14.429091 13.032728-15.918545l3.258181-0.372364z" fill="#D41A1E" p-id="2194"></path></svg>